<?xml version="1.0" encoding="utf-8"?>
<!-- Generator: Adobe Illustrator 16.0.0, SVG Export Plug-In . SVG Version: 6.00 Build 0)  -->
<!DOCTYPE svg PUBLIC "-//W3C//DTD SVG 1.1//EN" "http://www.w3.org/Graphics/SVG/1.1/DTD/svg11.dtd">
<svg version="1.1" id="Layer_1" xmlns="http://www.w3.org/2000/svg" xmlns:xlink="http://www.w3.org/1999/xlink" x="0px" y="0px"
	 width="117.166px" height="32.586px" viewBox="0 0 117.166 32.586" enable-background="new 0 0 117.166 32.586"
	 xml:space="preserve">
<path fill="#fff" d="M86.053,32.495c5.577-2.339,11.066-4.875,16.492-7.54c4.629-1.558,9.249-3.143,13.856-4.768
	c1.324-0.467,0.797-2.345-0.577-2.093c-0.392,0.072-0.777,0.161-1.166,0.238c-0.053-0.018-0.109-0.024-0.171-0.022
	c-0.117-0.084-0.26-0.14-0.432-0.155c-0.199-0.101-0.396-0.2-0.596-0.302c0.062-0.101,0.104-0.214,0.138-0.329
	c0.066-0.031,0.133-0.062,0.2-0.093c0.039,0.019,0.078,0.038,0.117,0.058c1.165,0.573,2.192-1.143,1.026-1.756
	c-0.06-0.032-0.119-0.062-0.18-0.094c-0.216-0.284-0.553-0.489-0.939-0.489c-1.587-0.831-3.175-1.661-4.768-2.479
	c-2.893-1.736-5.856-3.329-8.895-4.766c-5.527-2.981-11.18-5.709-17.118-7.849c-1.083-0.39-1.828,1.359-0.788,1.87
	c0.467,0.229,0.934,0.459,1.402,0.689c-0.004,0.001-0.008,0.001-0.011,0.002c-0.295-0.07-0.586-0.148-0.883-0.213
	c-1.104-0.238-1.965,1.408-0.815,1.935c0.902,0.415,1.806,0.829,2.708,1.243c0.079,0.169,0.221,0.321,0.44,0.431
	c0.786,0.39,1.572,0.781,2.358,1.171c-0.076,0.034-0.158,0.057-0.231,0.098c-0.267,0.151-0.38,0.474-0.311,0.764
	c0.028,0.121,0.058,0.241,0.087,0.362c0.203,0.843,1.432,0.477,1.283-0.353c0.173,0.964,5.134,2.322,6.082,2.737
	c1.147,0.503,2.294,1.012,3.437,1.527c2.554,1.267,5.115,2.522,7.673,3.783c-2.322-0.096-4.646-0.181-6.969-0.25
	c-32.502-2.293-65.103-1.359-97.514,2.252c-1.028,0.114-1.05,1.736,0,1.632c1.2-0.119,2.4-0.218,3.6-0.327
	c-2.999,0.543-5.58,1.768-4.217,4.683c0.125,0.268,0.467,0.434,0.751,0.431c33.987-0.377,67.935-1.999,101.819-4.602
	c-6.7,3.018-13.393,6.052-20.08,9.095c-0.928,0.422-0.601,1.708,0.177,2.043c0.176,0.577,0.712,1.041,1.388,0.779
	c0.088-0.034,0.177-0.067,0.266-0.102C84.852,32.326,85.352,32.789,86.053,32.495 M24.381,18.075
	c-4.519,0.241-9.035,0.517-13.55,0.827c-0.136,0.01-0.3,0.018-0.482,0.026C15.024,18.571,19.702,18.289,24.381,18.075
	 M38.609,19.204c4.138-0.141,8.276-0.261,12.417-0.339c4.485-0.085,8.973-0.118,13.46-0.125c-12.745,0.529-25.49,1.061-38.235,1.608
	C30.366,19.919,34.486,19.537,38.609,19.204 M4.591,22.949c-0.449-0.011-0.845-0.063-1.115-0.196
	c-0.261,0.003-0.522,0.007-0.784,0.01c0.431-0.519,0.861-1.037,1.291-1.556c0.672-0.374,2.204-0.236,2.989-0.303
	c0.427-0.037,0.856-0.066,1.284-0.098c-1.201,0.168-2.402,0.33-3.601,0.505C3.802,21.436,3.892,22.692,4.591,22.949 M45.1,21.653
	c9.479-0.449,18.957-0.937,28.433-1.462c1.415-0.06,2.83-0.118,4.244-0.177C66.89,20.678,55.997,21.224,45.1,21.653"/>
<path fill="#fff" d="M48.771,105.553c0.076,0.023,0.153,0.045,0.229,0.068c1.435,0.423,2.03-1.783,0.616-2.231
	c-6.461-2.047-12.92-4.093-19.381-6.14c-0.791-0.251-1.583-0.502-2.375-0.753c-4.624-1.731-9.277-3.38-13.973-4.904
	c17.288,0.737,34.655,0.615,51.944,0.863c18.538,0.265,38.067,2.126,56.341-1.643c1.061-0.219,0.778-1.812-0.248-1.838
	c-6.895-0.167-13.789-0.323-20.682-0.473c6.888-0.262,13.775-0.549,20.662-0.89c1.353-0.067,1.368-2.161,0-2.117
	c-21.934,0.714-43.867,1.399-65.802,2.078c-3.218,0.051-6.437,0.098-9.655,0.135c-12.051-0.062-24.103-0.035-36.161,0.122
	c1.027-0.345,2.053-0.69,3.078-1.042c11.371-3.201,22.907-6.63,33.45-11.557c0.224-0.105,0.061-0.437-0.163-0.386
	c-0.606,0.14-1.21,0.293-1.814,0.444c1.718-0.642,3.436-1.284,5.156-1.921c1.105-0.409,0.654-2.175-0.494-1.791
	c-6.339,2.12-12.676,4.255-19.008,6.404c1.974-0.818,3.952-1.623,5.936-2.415c4.076-1.557,8.151-3.1,12.19-4.685
	c1.165-0.457,0.681-2.352-0.526-1.908c-4.631,1.702-9.232,3.479-13.81,5.314c-9.753,3.733-19.492,7.58-28.764,12.311
	c-0.996,0.351-1.996,0.695-2.992,1.048c-0.459,0.161-0.683,0.525-0.72,0.903c-0.031,0.018-0.063,0.033-0.094,0.05
	c-0.089,0.049-0.159,0.108-0.221,0.173c-0.204,0.099-0.41,0.193-0.615,0.294c-1.09,0.527-0.321,2.252,0.815,1.931
	c0.28-0.079,0.537-0.167,0.784-0.262c-0.071,0.071-0.129,0.151-0.173,0.243c-0.713-0.014-0.946,1.102-0.172,1.365
	c0.225,0.076,0.451,0.149,0.676,0.226c0.058,0.026,0.109,0.063,0.176,0.079c0.065,0.014,0.129,0.03,0.194,0.045
	c13.7,4.649,27.527,8.93,41.243,13.528c0.447,0.15,0.842-0.039,1.095-0.355c0.632,0.253,1.264,0.504,1.895,0.757
	C48.243,106.959,48.783,106.266,48.771,105.553 M109.599,90.431c-5.542,0.329-11.108,0.304-16.675,0.228
	c-9.547-0.131-19.095-0.267-28.643-0.366c-5.442-0.057-10.892-0.151-16.343-0.243c3.808-0.127,7.617-0.254,11.425-0.382
	C76.115,89.707,92.865,89.927,109.599,90.431"/>
</svg>
