<?xml version="1.0" encoding="utf-8"?>
<!-- Generator: Adobe Illustrator 16.0.0, SVG Export Plug-In . SVG Version: 6.00 Build 0)  -->
<!DOCTYPE svg PUBLIC "-//W3C//DTD SVG 1.1//EN" "http://www.w3.org/Graphics/SVG/1.1/DTD/svg11.dtd">
<svg version="1.1" id="Layer_1" xmlns="http://www.w3.org/2000/svg" xmlns:xlink="http://www.w3.org/1999/xlink" x="0px" y="0px"
	 width="23.949px" height="56.565px" viewBox="0 0 23.949 56.565" enable-background="new 0 0 23.949 56.565" xml:space="preserve">
<path fill="#59545E" d="M23.3,6.743l-2.491-0.605c-0.281-0.068-0.577,0.01-0.787,0.21l-4.952,4.708l2.121-9.339
	c0.103-0.453-0.175-0.905-0.627-1.015l-2.778-0.677c-0.451-0.109-0.904,0.163-1.024,0.613l-2.411,9.269L8.119,3.449
	C8.024,3.174,7.797,2.968,7.517,2.9l-2.49-0.606C4.761,2.229,4.482,2.295,4.276,2.47C4.071,2.649,3.957,2.911,3.977,3.182
	L4.9,15.688c-0.736,0.215-1.407,0.517-1.948,0.935c-1.505,1.16-2.344,2.832-2.377,4.732L0,54.564
	c-0.017,0.926,0.6,1.727,1.501,1.946c0.681,0.165,1.402-0.044,1.883-0.547c0.138-0.145,0.254-0.31,0.343-0.49l8.858-17.858
	c0.02-0.032,0.036-0.066,0.051-0.103l5.851-11.794c0.854-1.72,0.877-3.551,0.066-5.294c-0.289-0.621-0.746-1.197-1.3-1.727
	l6.57-10.681c0.143-0.231,0.166-0.517,0.062-0.77C23.782,6.995,23.564,6.808,23.3,6.743z M17.011,21.141
	c0.582,1.25,0.567,2.565-0.04,3.801l-6.64-1.616c-0.455-0.113-0.914,0.168-1.027,0.625c-0.112,0.457,0.169,0.917,0.625,1.027
	l6.269,1.526l-4.801,9.678l-2.699-0.657c-0.456-0.112-0.914,0.168-1.027,0.625c-0.112,0.456,0.168,0.917,0.625,1.027l2.327,0.567
	L2.204,54.717c-0.06,0.117-0.177,0.169-0.301,0.139c-0.127-0.031-0.204-0.131-0.202-0.262L1.88,44.273l2.503,0.61
	c0.306,0.075,0.614-0.026,0.817-0.239c0.1-0.104,0.174-0.235,0.21-0.386c0.112-0.456-0.168-0.916-0.625-1.027l-2.876-0.7L2.125,30.1
	l3.94,0.96c0.307,0.075,0.614-0.026,0.817-0.239c0.1-0.104,0.174-0.235,0.21-0.386c0.111-0.456-0.169-0.916-0.625-1.027l-4.313-1.05
	l0.121-6.973c0.02-1.149,0.415-2.134,1.175-2.929c0.165-0.172,0.345-0.334,0.541-0.486c0.536-0.414,1.297-0.679,2.153-0.831
	c0.357-0.063,0.721-0.11,1.088-0.134c0.148-0.009,0.298-0.007,0.448-0.01c0.263-0.006,0.524-0.008,0.782,0.001
	C8.611,17,8.761,17.007,8.91,17.018c0.286,0.021,0.564,0.048,0.831,0.083c0.095,0.012,0.192,0.021,0.285,0.036
	c0.367,0.057,0.715,0.123,1.017,0.195c0.251,0.062,0.513,0.14,0.775,0.223c0.06,0.02,0.118,0.037,0.177,0.058
	c0.266,0.089,0.534,0.187,0.8,0.296c0.032,0.012,0.063,0.026,0.094,0.039c0.88,0.367,1.746,0.833,2.469,1.368
	c0.01,0.007,0.02,0.014,0.029,0.021C16.125,19.883,16.713,20.498,17.011,21.141z M15.917,17.623
	c-0.069-0.046-0.145-0.082-0.214-0.126c-0.186-0.119-0.38-0.227-0.573-0.337c-0.156-0.087-0.306-0.179-0.462-0.26
	c-1.064-0.551-2.195-0.97-3.222-1.22c-0.686-0.166-1.445-0.287-2.23-0.351c-0.02-0.001-0.041-0.001-0.061-0.002
	c-0.373-0.029-0.749-0.044-1.126-0.045c-0.187,0-0.373,0.013-0.561,0.021c-0.212,0.008-0.423,0.015-0.632,0.033
	c-0.086,0.007-0.171,0.004-0.255,0.013L5.76,4.222l0.903,0.221l3,8.676c0.123,0.355,0.463,0.587,0.837,0.572
	c0.374-0.015,0.696-0.272,0.789-0.635l2.908-11.181l1.15,0.28l-2.559,11.266c-0.083,0.366,0.083,0.742,0.409,0.928
	c0.326,0.185,0.734,0.134,1.006-0.123L20.858,7.9l0.904,0.22L15.917,17.623z"/>
</svg>
