<?xml version="1.0" encoding="utf-8"?>
<!-- Generator: Adobe Illustrator 16.0.0, SVG Export Plug-In . SVG Version: 6.00 Build 0)  -->
<!DOCTYPE svg PUBLIC "-//W3C//DTD SVG 1.1//EN" "http://www.w3.org/Graphics/SVG/1.1/DTD/svg11.dtd">
<svg version="1.1" id="Layer_1" xmlns="http://www.w3.org/2000/svg" xmlns:xlink="http://www.w3.org/1999/xlink" x="0px" y="0px"
	 width="420px" height="60px" viewBox="-198.494 -2.249 420 60" enable-background="new -198.494 -2.249 420 60"
	 xml:space="preserve">
<path fill="#59545E" d="M-148.835,13.481l-1.967-1.646c-0.222-0.186-0.521-0.247-0.799-0.16l-6.523,2.03l6.036-7.435
	c0.293-0.361,0.244-0.89-0.113-1.188l-2.191-1.837c-0.356-0.297-0.883-0.254-1.189,0.097l-6.265,7.245l0.857-6.779
	c0.037-0.289-0.076-0.574-0.297-0.759l-1.964-1.646c-0.21-0.176-0.49-0.24-0.751-0.175c-0.264,0.07-0.482,0.254-0.584,0.506
	l-4.708,11.623c-0.756-0.133-1.491-0.159-2.161-0.023c-1.863,0.374-3.355,1.502-4.226,3.19l-15.217,29.523
	c-0.425,0.823-0.226,1.814,0.484,2.409c0.539,0.45,1.277,0.582,1.93,0.344c0.189-0.069,0.366-0.166,0.525-0.287l15.848-12.093
	c0.031-0.02,0.061-0.043,0.09-0.069l10.467-7.986c1.528-1.163,2.359-2.795,2.404-4.718c0.015-0.685-0.14-1.403-0.401-2.123
	l10.619-6.669c0.23-0.144,0.378-0.39,0.396-0.663C-148.514,13.921-148.626,13.656-148.835,13.481z M-160.849,23.607
	c-0.03,1.378-0.627,2.552-1.718,3.391l-5.238-4.388c-0.358-0.303-0.894-0.254-1.197,0.106c-0.304,0.36-0.254,0.897,0.106,1.196
	l4.944,4.144l-8.588,6.553l-2.13-1.784c-0.359-0.302-0.894-0.254-1.198,0.105c-0.302,0.359-0.255,0.896,0.106,1.198l1.836,1.539
	l-15.063,11.492c-0.104,0.078-0.233,0.073-0.331-0.009c-0.101-0.084-0.125-0.208-0.066-0.324l4.729-9.176l1.975,1.654
	c0.241,0.204,0.562,0.249,0.839,0.148c0.135-0.049,0.259-0.134,0.358-0.253c0.303-0.359,0.255-0.896-0.105-1.198l-2.27-1.9
	l5.697-11.051l3.108,2.605c0.241,0.203,0.562,0.249,0.837,0.147c0.137-0.048,0.261-0.133,0.36-0.253
	c0.301-0.359,0.253-0.896-0.107-1.197l-3.401-2.851l3.195-6.199c0.526-1.022,1.316-1.729,2.35-2.106
	c0.225-0.081,0.458-0.147,0.7-0.197c0.664-0.134,1.463-0.035,2.299,0.208c0.348,0.102,0.695,0.22,1.034,0.362
	c0.137,0.057,0.271,0.125,0.407,0.189c0.238,0.111,0.473,0.224,0.7,0.347c0.132,0.07,0.264,0.143,0.393,0.218
	c0.247,0.146,0.484,0.292,0.708,0.442c0.08,0.053,0.162,0.105,0.239,0.159c0.305,0.213,0.588,0.426,0.826,0.625
	c0.197,0.166,0.398,0.353,0.596,0.542c0.045,0.045,0.09,0.086,0.133,0.13c0.199,0.198,0.396,0.405,0.586,0.621
	c0.023,0.024,0.045,0.05,0.067,0.076c0.628,0.718,1.196,1.52,1.608,2.318c0.006,0.012,0.012,0.022,0.017,0.033
	C-161.085,22.087-160.83,22.899-160.849,23.607z M-160.271,19.969c-0.042-0.072-0.095-0.138-0.136-0.208
	c-0.114-0.188-0.24-0.372-0.365-0.556c-0.101-0.146-0.195-0.296-0.299-0.438c-0.711-0.965-1.538-1.841-2.35-2.52
	c-0.542-0.453-1.168-0.897-1.844-1.302c-0.017-0.009-0.037-0.019-0.054-0.028c-0.321-0.192-0.652-0.371-0.989-0.539
	c-0.169-0.083-0.34-0.154-0.514-0.229c-0.193-0.087-0.385-0.175-0.581-0.25c-0.079-0.032-0.155-0.072-0.234-0.101l4.189-10.341
	l0.712,0.598l-1.15,9.108c-0.047,0.373,0.155,0.731,0.497,0.883c0.343,0.152,0.745,0.064,0.988-0.22l7.558-8.739l0.908,0.761
	l-7.283,8.969c-0.236,0.292-0.254,0.702-0.043,1.013s0.6,0.445,0.956,0.335l8.768-2.728l0.713,0.598L-160.271,19.969z"/>
<g id="_x35_gSTo2_1_">
	<g>
		<g>
			<path fill="none" stroke="#59545E" stroke-miterlimit="10" d="M-109.97,14.057c-0.008-0.023-0.019-0.043-0.023-0.062
				c-0.019-0.073-0.037-0.145-0.052-0.217c-0.479-2.199-1.5-4.089-3.166-5.62c-1.53-1.409-3.333-2.364-5.242-3.133
				c-2.28-0.917-4.646-1.554-7.042-2.09c-0.475-0.107-0.629-0.015-0.628,0.463c0,1.919-0.028,3.84,0.042,5.757
				c0.066,1.815,0.359,3.605,0.911,5.343c0.524,1.656,1.278,3.183,2.516,4.435c0.229,0.232,0.453,0.468,0.718,0.742
				c-4.035,0.261-7.281,1.94-9.557,5.233c-2.281,3.3-2.804,6.942-1.541,10.759c1.055,3.188,3.122,5.572,6.156,7.027
				c3.82,1.834,7.628,1.652,11.373-0.328c0.022,0.078,0.046,0.139,0.058,0.199c0.197,1.164,0.539,2.285,1.084,3.332
				c2.026,3.895,5.23,6.137,9.577,6.684c2.505,0.312,4.888-0.193,7.103-1.41c2.534-1.389,4.351-3.438,5.439-6.113
				c0.732-1.801,0.987-3.68,0.821-5.615c-0.019-0.213,0.058-0.285,0.254-0.354c0.581-0.205,1.177-0.395,1.721-0.676
				c1.93-1.002,3.114-2.67,4.019-4.58c0.98-2.074,1.546-4.279,2.061-6.502c0.083-0.359-0.049-0.527-0.425-0.535
				c-0.801-0.02-1.601-0.045-2.4-0.036c-1.493,0.018-2.984,0.09-4.453,0.387c-0.41,0.083-0.819,0.174-1.223,0.26
				c0.94-5.143-0.424-9.477-4.652-12.614C-100.773,11.638-105.329,11.663-109.97,14.057z"/>
			<path fill-rule="evenodd" clip-rule="evenodd" stroke="#59545E" stroke-miterlimit="10" d="M-109.97,14.057
				c4.641-2.394,9.196-2.419,13.447,0.735c4.229,3.137,5.593,7.471,4.652,12.614c0.403-0.086,0.812-0.177,1.223-0.26
				c1.469-0.296,2.96-0.369,4.453-0.387c0.8-0.009,1.6,0.016,2.4,0.036c0.376,0.008,0.508,0.176,0.425,0.535
				c-0.515,2.223-1.08,4.428-2.061,6.502c-0.904,1.91-2.089,3.578-4.019,4.58c-0.544,0.281-1.14,0.471-1.721,0.676
				c-0.196,0.068-0.272,0.141-0.254,0.354c0.166,1.936-0.089,3.814-0.821,5.615c-1.089,2.676-2.905,4.725-5.439,6.113
				c-2.215,1.217-4.598,1.723-7.103,1.41c-4.347-0.547-7.551-2.789-9.577-6.684c-0.545-1.047-0.887-2.168-1.084-3.332
				c-0.012-0.061-0.035-0.121-0.058-0.199c-3.745,1.98-7.553,2.162-11.373,0.328c-3.034-1.455-5.102-3.84-6.156-7.027
				c-1.263-3.816-0.74-7.459,1.541-10.759c2.275-3.293,5.521-4.973,9.557-5.233c-0.265-0.273-0.488-0.51-0.718-0.742
				c-1.237-1.252-1.991-2.779-2.516-4.435c-0.552-1.738-0.845-3.528-0.911-5.343c-0.07-1.917-0.042-3.838-0.042-5.757
				c-0.001-0.478,0.153-0.57,0.628-0.463c2.396,0.536,4.762,1.172,7.042,2.09c1.909,0.769,3.712,1.725,5.242,3.133
				c1.666,1.53,2.687,3.421,3.166,5.62c0.015,0.073,0.033,0.145,0.052,0.217C-109.988,14.014-109.978,14.033-109.97,14.057z
				 M-114.903,39.817c-0.396,6.305,4.371,11.725,10.667,12.127c6.319,0.404,11.774-4.383,12.168-10.674
				c0.398-6.344-4.392-11.766-10.747-12.17C-109.09,28.703-114.506,33.504-114.903,39.817z M-122.241,43.276
				c0.616-0.023,1.236-0.018,1.851-0.074c1.649-0.152,3.186-0.666,4.619-1.494c0.146-0.082,0.186-0.178,0.191-0.354
				c0.03-0.936,0.003-1.885,0.149-2.805c0.502-3.164,2.054-5.74,4.613-7.66c0.527-0.396,0.643-0.73,0.514-1.348
				c-1.183-5.663-6.384-9.653-12.11-9.116c-4.818,0.451-8.14,3.027-9.883,7.541c-0.908,2.351-0.926,4.782-0.191,7.192
				C-131.092,39.744-127.035,42.926-122.241,43.276z M-94.943,31.842c-0.003,0.004,0.018-0.006,0.031-0.021
				c0.063-0.072,0.128-0.145,0.187-0.219c1.271-1.621,2.112-3.439,2.346-5.49c0.531-4.643-1.077-8.388-4.918-11.072
				c-2.494-1.743-5.323-2.362-8.316-1.797c-4.654,0.878-7.673,3.655-9.105,8.167c-0.073,0.23-0.029,0.354,0.172,0.498
				c2.216,1.584,3.749,3.672,4.572,6.271c0.184,0.584,0.308,1.186,0.456,1.764C-104.247,27.352-99.395,27.997-94.943,31.842z
				 M-125.404,4.27c-0.023,0.006-0.049,0.013-0.072,0.02c-0.005,0.071-0.014,0.141-0.014,0.212c0.028,1.61,0.017,3.22,0.102,4.827
				c0.089,1.695,0.355,3.37,0.879,4.994c0.655,2.031,1.685,3.816,3.415,5.128c0.19,0.145,0.447,0.252,0.684,0.281
				c1.508,0.175,2.952,0.556,4.31,1.246c0.224,0.113,0.448,0.225,0.624,0.313c0.354-0.83,0.703-1.628,1.034-2.434
				c0.036-0.09,0.004-0.249-0.058-0.331c-1.188-1.574-2.38-3.146-3.58-4.711c-1.647-2.151-3.302-4.298-4.95-6.448
				C-123.824,6.336-124.614,5.303-125.404,4.27z M-124.863,3.85c3.617,4.729,7.233,9.457,10.858,14.197
				c0.054-0.059,0.086-0.087,0.108-0.121c0.852-1.298,1.901-2.405,3.161-3.317c0.07-0.051,0.104-0.22,0.086-0.32
				c-0.455-2.525-1.662-4.605-3.69-6.197c-1.526-1.198-3.251-2.02-5.056-2.699C-121.162,4.731-122.978,4.233-124.863,3.85z
				 M-91.531,38.537c0.571-0.229,1.118-0.408,1.628-0.664c1.792-0.896,2.959-2.396,3.759-4.17c0.578-1.285,1.02-2.635,1.486-3.969
				c0.184-0.527,0.271-1.092,0.426-1.733c-2.93,2.26-5.781,4.456-8.641,6.661C-92.221,35.865-91.774,37.114-91.531,38.537z
				 M-93.198,34.049c2.825-2.178,5.639-4.348,8.524-6.572c-0.185-0.012-0.275-0.023-0.367-0.022
				c-0.871,0.009-1.746,0.005-2.618,0.037c-1.419,0.049-2.82,0.252-4.191,0.637c-0.198,0.055-0.304,0.152-0.396,0.354
				c-0.413,0.898-0.839,1.791-1.312,2.66c-0.247,0.451-0.602,0.846-0.896,1.25C-94.038,32.942-93.633,33.477-93.198,34.049z"/>
			<path fill-rule="evenodd" clip-rule="evenodd" fill="none" stroke="#59545E" stroke-miterlimit="10" d="M-114.903,39.817
				c0.397-6.312,5.813-11.113,12.088-10.717c6.355,0.404,11.146,5.826,10.747,12.17c-0.394,6.291-5.849,11.078-12.168,10.674
				C-110.532,51.541-115.299,46.121-114.903,39.817z M-103.557,46.147c-0.027,0.211-0.059,0.422-0.081,0.633
				c-0.033,0.316,0.06,0.428,0.375,0.461c0.084,0.012,0.171,0.014,0.255,0.023c1.067,0.121,2.053,0.406,2.737,1.32
				c0.313,0.42,0.552,0.375,0.764-0.121c0.309-0.719,0.692-1.395,1.426-1.746c0.444-0.213,0.939-0.332,1.421-0.455
				c0.472-0.121,0.559-0.33,0.243-0.709c-0.358-0.428-0.606-0.918-0.639-1.471c-0.03-0.559,0.004-1.125,0.04-1.686
				c0.021-0.338-0.046-0.477-0.377-0.547c-0.081-0.018-0.168-0.023-0.253-0.029c-1.14-0.092-2.14-0.451-2.836-1.432
				c-0.178-0.248-0.44-0.213-0.59,0.053c-0.058,0.104-0.094,0.217-0.143,0.322c-0.26,0.568-0.582,1.092-1.104,1.465
				c-0.52,0.369-1.117,0.508-1.731,0.611c-0.382,0.062-0.503,0.332-0.26,0.611C-103.631,44.235-103.476,45.155-103.557,46.147z"/>
			<path fill-rule="evenodd" clip-rule="evenodd" fill="none" stroke="#59545E" stroke-miterlimit="10" d="M-122.241,43.276
				c-4.794-0.35-8.851-3.531-10.247-8.117c-0.734-2.41-0.717-4.842,0.191-7.192c1.743-4.514,5.064-7.09,9.883-7.541
				c5.727-0.537,10.928,3.454,12.11,9.116c0.129,0.617,0.014,0.951-0.514,1.348c-2.56,1.92-4.111,4.496-4.613,7.66
				c-0.146,0.92-0.119,1.869-0.149,2.805c-0.006,0.176-0.045,0.271-0.191,0.354c-1.434,0.828-2.97,1.342-4.619,1.494
				C-121.005,43.258-121.625,43.252-122.241,43.276z M-120.652,25.418c-0.071-0.071-0.161-0.2-0.284-0.269
				c-0.114-0.065-0.268-0.062-0.401-0.093c-1.027-0.235-1.944-0.64-2.515-1.596c-0.259-0.435-0.529-0.44-0.76,0.006
				c-0.649,1.256-1.671,1.89-3.087,1.9c-0.466,0.002-0.593,0.255-0.337,0.642c0.378,0.572,0.562,1.201,0.494,1.881
				c-0.048,0.486-0.146,0.968-0.242,1.447c-0.054,0.262,0.028,0.414,0.278,0.482c0.091,0.025,0.187,0.041,0.28,0.061
				c1.062,0.229,2.017,0.629,2.604,1.621c0.25,0.42,0.499,0.424,0.742,0.004c0.312-0.539,0.657-1.049,1.188-1.4
				c0.604-0.398,1.288-0.482,1.983-0.529c0.358-0.025,0.504-0.279,0.303-0.568c-0.591-0.854-0.643-1.786-0.447-2.761
				C-120.801,25.995-120.733,25.749-120.652,25.418z"/>
			<path fill-rule="evenodd" clip-rule="evenodd" fill="none" stroke="#59545E" stroke-miterlimit="10" d="M-94.943,31.842
				c-4.451-3.845-9.304-4.49-14.576-1.9c-0.148-0.578-0.272-1.18-0.456-1.764c-0.823-2.598-2.356-4.687-4.572-6.271
				c-0.201-0.144-0.245-0.268-0.172-0.498c1.433-4.511,4.451-7.288,9.105-8.167c2.993-0.565,5.822,0.054,8.316,1.797
				c3.841,2.684,5.449,6.43,4.918,11.072c-0.233,2.05-1.074,3.869-2.346,5.49c-0.059,0.074-0.123,0.146-0.187,0.219
				C-94.926,31.836-94.946,31.846-94.943,31.842z M-106.019,22.381c-0.144,0.529,0.247,0.706,0.664,0.47
				c0.327-0.186,0.709-0.302,1.082-0.378c0.928-0.191,1.738,0.135,2.502,0.638c0.368,0.243,0.625,0.108,0.631-0.324
				c0.009-0.607,0.179-1.172,0.55-1.641c0.342-0.432,0.748-0.813,1.144-1.198c0.25-0.245,0.272-0.381,0.03-0.639
				c-0.103-0.11-0.206-0.217-0.302-0.332c-0.645-0.762-1.108-1.596-1.018-2.641c0.044-0.508-0.141-0.625-0.619-0.451
				c-0.487,0.177-0.984,0.361-1.493,0.433c-0.791,0.11-1.475-0.25-2.126-0.659c-0.403-0.252-0.621-0.139-0.644,0.326
				c-0.023,0.521-0.128,1.034-0.447,1.447c-0.374,0.486-0.808,0.928-1.237,1.369c-0.262,0.268-0.286,0.38-0.031,0.662
				c0.13,0.142,0.261,0.283,0.381,0.432C-106.362,20.617-105.957,21.409-106.019,22.381z"/>
			<path fill-rule="evenodd" clip-rule="evenodd" fill="none" stroke="#59545E" stroke-miterlimit="10" d="M-125.404,4.27
				c0.79,1.033,1.58,2.066,2.373,3.097c1.648,2.15,3.303,4.297,4.95,6.448c1.2,1.566,2.392,3.138,3.58,4.711
				c0.062,0.082,0.094,0.24,0.058,0.331c-0.331,0.805-0.68,1.604-1.034,2.434c-0.176-0.088-0.4-0.2-0.624-0.313
				c-1.357-0.69-2.802-1.07-4.31-1.246c-0.236-0.028-0.493-0.136-0.684-0.281c-1.73-1.312-2.76-3.098-3.415-5.128
				c-0.523-1.624-0.79-3.299-0.879-4.994c-0.085-1.606-0.073-3.217-0.102-4.827c0-0.071,0.009-0.142,0.014-0.212
				C-125.453,4.283-125.428,4.276-125.404,4.27z"/>
			<path fill-rule="evenodd" clip-rule="evenodd" fill="none" stroke="#59545E" stroke-miterlimit="10" d="M-124.863,3.85
				c1.886,0.382,3.701,0.88,5.468,1.543c1.805,0.679,3.529,1.5,5.056,2.699c2.028,1.592,3.235,3.671,3.69,6.197
				c0.019,0.1-0.016,0.269-0.086,0.32c-1.26,0.912-2.31,2.02-3.161,3.317c-0.022,0.034-0.055,0.062-0.108,0.121
				C-117.63,13.307-121.246,8.579-124.863,3.85z"/>
			<path fill-rule="evenodd" clip-rule="evenodd" fill="none" stroke="#59545E" stroke-miterlimit="10" d="M-91.531,38.537
				c-0.243-1.424-0.689-2.672-1.342-3.875c2.859-2.205,5.711-4.4,8.641-6.661c-0.154,0.641-0.242,1.206-0.426,1.733
				c-0.467,1.334-0.908,2.684-1.486,3.969c-0.8,1.773-1.967,3.273-3.759,4.17C-90.413,38.129-90.96,38.309-91.531,38.537z"/>
			<path fill-rule="evenodd" clip-rule="evenodd" fill="none" stroke="#59545E" stroke-miterlimit="10" d="M-93.198,34.049
				c-0.435-0.572-0.84-1.107-1.257-1.656c0.295-0.404,0.649-0.799,0.896-1.25c0.473-0.869,0.898-1.762,1.312-2.66
				c0.093-0.201,0.198-0.299,0.396-0.354c1.371-0.385,2.772-0.588,4.191-0.637c0.872-0.031,1.747-0.027,2.618-0.037
				c0.092-0.001,0.183,0.01,0.367,0.022C-87.56,29.701-90.373,31.871-93.198,34.049z"/>
			<path fill-rule="evenodd" clip-rule="evenodd" stroke="#59545E" stroke-miterlimit="10" d="M-103.557,46.147
				c0.081-0.992-0.074-1.912-0.752-2.695c-0.243-0.279-0.122-0.549,0.26-0.611c0.614-0.104,1.212-0.242,1.731-0.611
				c0.521-0.373,0.844-0.896,1.104-1.465c0.049-0.105,0.085-0.219,0.143-0.322c0.149-0.266,0.412-0.301,0.59-0.053
				c0.696,0.98,1.696,1.34,2.836,1.432c0.085,0.006,0.172,0.012,0.253,0.029c0.331,0.07,0.398,0.209,0.377,0.547
				c-0.036,0.561-0.07,1.127-0.04,1.686c0.032,0.553,0.28,1.043,0.639,1.471c0.315,0.379,0.229,0.588-0.243,0.709
				c-0.481,0.123-0.977,0.242-1.421,0.455c-0.733,0.352-1.117,1.027-1.426,1.746c-0.212,0.496-0.45,0.541-0.764,0.121
				c-0.685-0.914-1.67-1.199-2.737-1.32c-0.084-0.01-0.171-0.012-0.255-0.023c-0.315-0.033-0.408-0.145-0.375-0.461
				C-103.615,46.569-103.584,46.358-103.557,46.147z M-100.68,41.239c-0.575,1.203-1.483,1.928-2.795,2.186
				c0.654,0.996,0.679,2.059,0.556,3.105c0.562,0.148,1.098,0.23,1.583,0.434c0.481,0.201,0.914,0.523,1.397,0.811
				c0.521-1.125,1.447-1.84,2.74-2.109c-0.623-1.004-0.682-2.062-0.553-3.15C-98.848,42.35-99.873,42.088-100.68,41.239z"/>
			<path fill-rule="evenodd" clip-rule="evenodd" stroke="#59545E" stroke-miterlimit="10" d="M-120.652,25.418
				c-0.081,0.331-0.148,0.577-0.199,0.827c-0.195,0.975-0.144,1.906,0.447,2.761c0.201,0.289,0.056,0.543-0.303,0.568
				c-0.695,0.047-1.38,0.131-1.983,0.529c-0.531,0.352-0.876,0.861-1.188,1.4c-0.243,0.42-0.492,0.416-0.742-0.004
				c-0.588-0.992-1.543-1.393-2.604-1.621c-0.094-0.02-0.189-0.035-0.28-0.061c-0.25-0.068-0.332-0.221-0.278-0.482
				c0.097-0.479,0.194-0.961,0.242-1.447c0.067-0.68-0.116-1.309-0.494-1.881c-0.256-0.387-0.129-0.64,0.337-0.642
				c1.416-0.011,2.438-0.645,3.087-1.9c0.23-0.446,0.501-0.441,0.76-0.006c0.57,0.957,1.487,1.361,2.515,1.596
				c0.134,0.03,0.287,0.028,0.401,0.093C-120.813,25.218-120.724,25.347-120.652,25.418z M-127.034,29.219
				c1.09,0.24,2.059,0.666,2.78,1.58c0.699-1.129,1.682-1.744,3.01-1.865c-0.529-1.05-0.445-2.113-0.22-3.141
				c-0.528-0.209-1.048-0.356-1.508-0.612c-0.455-0.253-0.853-0.616-1.305-0.952c-0.639,1.057-1.638,1.666-2.953,1.79
				C-126.722,27.083-126.785,28.135-127.034,29.219z"/>
			<path fill-rule="evenodd" clip-rule="evenodd" stroke="#59545E" stroke-miterlimit="10" d="M-106.019,22.381
				c0.062-0.972-0.344-1.764-0.934-2.486c-0.12-0.148-0.251-0.29-0.381-0.432c-0.255-0.282-0.23-0.395,0.031-0.662
				c0.43-0.441,0.863-0.883,1.237-1.369c0.319-0.413,0.424-0.925,0.447-1.447c0.022-0.465,0.24-0.578,0.644-0.326
				c0.651,0.408,1.335,0.769,2.126,0.659c0.509-0.071,1.006-0.255,1.493-0.433c0.479-0.174,0.663-0.057,0.619,0.451
				c-0.091,1.045,0.373,1.879,1.018,2.641c0.096,0.115,0.199,0.222,0.302,0.332c0.242,0.258,0.22,0.395-0.03,0.639
				c-0.396,0.385-0.802,0.767-1.144,1.198c-0.371,0.468-0.541,1.034-0.55,1.641c-0.006,0.432-0.263,0.567-0.631,0.324
				c-0.764-0.503-1.574-0.829-2.502-0.638c-0.373,0.076-0.755,0.193-1.082,0.378C-105.771,23.087-106.162,22.91-106.019,22.381z
				 M-106.668,19.168c0.737,0.842,1.296,1.733,1.336,2.913c1.229-0.519,2.397-0.439,3.462,0.171
				c0.234-0.507,0.408-1.017,0.691-1.458c0.292-0.449,0.688-0.828,1.041-1.24c-1.032-1.366-1.077-1.459-1.323-2.866
				c-1.198,0.514-2.368,0.426-3.517-0.229C-105.173,17.621-105.824,18.433-106.668,19.168z"/>
			<path fill-rule="evenodd" clip-rule="evenodd" fill="none" stroke="#59545E" stroke-miterlimit="10" d="M-100.68,41.239
				c0.807,0.85,1.832,1.111,2.929,1.275c-0.129,1.088-0.07,2.146,0.553,3.15c-1.293,0.27-2.219,0.984-2.74,2.109
				c-0.483-0.287-0.916-0.609-1.397-0.811c-0.485-0.203-1.021-0.285-1.583-0.434c0.123-1.047,0.099-2.109-0.556-3.105
				C-102.163,43.166-101.255,42.442-100.68,41.239z M-100.216,42.992c-0.863-0.059-1.613,0.592-1.671,1.449
				c-0.059,0.848,0.582,1.596,1.427,1.664c0.856,0.07,1.62-0.58,1.689-1.438C-98.701,43.813-99.355,43.053-100.216,42.992z"/>
			<path fill-rule="evenodd" clip-rule="evenodd" fill="none" stroke="#59545E" stroke-miterlimit="10" d="M-127.034,29.219
				c0.249-1.084,0.312-2.136-0.195-3.2c1.315-0.124,2.314-0.732,2.953-1.79c0.452,0.336,0.85,0.698,1.305,0.952
				c0.46,0.255,0.979,0.403,1.508,0.612c-0.226,1.028-0.31,2.091,0.22,3.141c-1.328,0.121-2.311,0.736-3.01,1.865
				C-124.976,29.885-125.944,29.459-127.034,29.219z M-124.328,29.031c0.843,0.053,1.586-0.601,1.646-1.444
				c0.059-0.86-0.593-1.611-1.456-1.674c-0.853-0.061-1.604,0.604-1.655,1.467C-125.846,28.248-125.197,28.979-124.328,29.031z"/>
			<path fill-rule="evenodd" clip-rule="evenodd" fill="none" stroke="#59545E" stroke-miterlimit="10" d="M-106.668,19.168
				c0.844-0.734,1.495-1.547,1.69-2.708c1.148,0.654,2.318,0.742,3.517,0.229c0.246,1.407,0.291,1.5,1.323,2.866
				c-0.354,0.412-0.749,0.791-1.041,1.24c-0.283,0.44-0.457,0.95-0.691,1.458c-1.064-0.61-2.233-0.69-3.462-0.171
				C-105.372,20.901-105.931,20.01-106.668,19.168z M-103.271,17.827c-0.879-0.058-1.604,0.578-1.66,1.45
				c-0.055,0.872,0.583,1.6,1.456,1.661c0.848,0.06,1.604-0.612,1.65-1.473C-101.777,18.611-102.42,17.883-103.271,17.827z"/>
			<path fill-rule="evenodd" clip-rule="evenodd" stroke="#59545E" stroke-miterlimit="10" d="M-100.216,42.992
				c0.86,0.061,1.515,0.82,1.445,1.676c-0.069,0.857-0.833,1.508-1.689,1.438c-0.845-0.068-1.485-0.816-1.427-1.664
				C-101.829,43.584-101.079,42.934-100.216,42.992z M-101.197,44.455c-0.031,0.514,0.322,0.941,0.808,0.973
				c0.471,0.031,0.903-0.346,0.935-0.818c0.033-0.498-0.343-0.938-0.824-0.959C-100.731,43.629-101.17,44.014-101.197,44.455z"/>
			<path fill-rule="evenodd" clip-rule="evenodd" stroke="#59545E" stroke-miterlimit="10" d="M-124.328,29.031
				c-0.869-0.053-1.518-0.783-1.466-1.651c0.051-0.863,0.803-1.528,1.655-1.467c0.863,0.063,1.515,0.814,1.456,1.674
				C-122.742,28.431-123.485,29.084-124.328,29.031z M-124.203,26.597c-0.464-0.024-0.898,0.367-0.922,0.829
				c-0.023,0.473,0.353,0.889,0.83,0.916c0.485,0.029,0.897-0.327,0.934-0.806C-123.325,27.056-123.714,26.622-124.203,26.597z"/>
			<path fill-rule="evenodd" clip-rule="evenodd" stroke="#59545E" stroke-miterlimit="10" d="M-103.271,17.827
				c0.852,0.056,1.494,0.784,1.446,1.638c-0.047,0.86-0.803,1.533-1.65,1.473c-0.873-0.062-1.511-0.79-1.456-1.661
				C-104.876,18.405-104.15,17.769-103.271,17.827z M-104.259,19.32c-0.03,0.474,0.351,0.911,0.818,0.94
				c0.473,0.03,0.9-0.348,0.934-0.824c0.033-0.473-0.343-0.906-0.816-0.938C-103.792,18.465-104.228,18.848-104.259,19.32z"/>
			<path fill-rule="evenodd" clip-rule="evenodd" fill="none" stroke="#59545E" stroke-miterlimit="10" d="M-101.197,44.455
				c0.027-0.441,0.466-0.826,0.918-0.805c0.481,0.021,0.857,0.461,0.824,0.959c-0.031,0.473-0.464,0.85-0.935,0.818
				C-100.875,45.397-101.229,44.969-101.197,44.455z"/>
			<path fill-rule="evenodd" clip-rule="evenodd" fill="none" stroke="#59545E" stroke-miterlimit="10" d="M-124.203,26.597
				c0.489,0.024,0.878,0.458,0.842,0.939c-0.036,0.479-0.448,0.835-0.934,0.806c-0.478-0.027-0.854-0.443-0.83-0.916
				C-125.102,26.965-124.667,26.573-124.203,26.597z"/>
			<path fill-rule="evenodd" clip-rule="evenodd" fill="none" stroke="#59545E" stroke-miterlimit="10" d="M-104.259,19.32
				c0.031-0.472,0.467-0.854,0.936-0.822c0.474,0.032,0.85,0.465,0.816,0.938c-0.033,0.477-0.461,0.854-0.934,0.824
				C-103.908,20.231-104.289,19.793-104.259,19.32z"/>
		</g>
	</g>
</g>
<g>
	
		<path fill-rule="evenodd" clip-rule="evenodd" fill="none" stroke="#59545E" stroke-width="1.7008" stroke-linecap="round" stroke-linejoin="round" stroke-miterlimit="22.9256" d="
		M-63.632,41.823c-1.493-1.853-2.142-3.834-2.341-6.118c-0.309-3.544,0.468-7.814,3.071-11.919c2.869-4.521,6.04-8.148,8.957-9.257
		c3.397-1.29,6.472,0.022,8.447,2.698c-3.156-0.44-7.272,1.58-12.973,10.225C-62.376,33.381-64.537,38.232-63.632,41.823
		L-63.632,41.823z M-39.701,21.245c3.198,0.912,5.505,3.331,5.488,6.964c-0.016,3.121-2.301,7.363-5.529,11.635
		c-2.93,3.88-6.658,6.103-10.085,7.056c-2.209,0.615-4.292,0.702-6.552-0.047c3.682-0.411,7.469-4.135,11.65-9.873
		C-38.631,28.611-38.184,24.046-39.701,21.245z"/>
	
		<path fill-rule="evenodd" clip-rule="evenodd" fill="none" stroke="#59545E" stroke-width="1.7008" stroke-linecap="round" stroke-linejoin="round" stroke-miterlimit="22.9256" d="
		M-40.033,20.702c0.824-5.662,6.073-10.918-3.541-15.579c-1.034-0.329-1.506,1.209-1.035,1.634
		c5.562,2.772,3.636,8.329-0.519,10.533c1.089,0.222,2.062,0.73,2.947,1.344C-41.368,19.197-40.609,19.864-40.033,20.702z"/>
	
		<path fill-rule="evenodd" clip-rule="evenodd" fill="none" stroke="#59545E" stroke-width="1.7008" stroke-linecap="round" stroke-linejoin="round" stroke-miterlimit="22.9256" d="
		M-60.877,45.598c-5.142-3.564-3.104-9.784,2.407-18.146c7.94-12.044,12.81-11.231,16.289-8.818
		c3.479,2.412,5.947,6.686-2.548,18.346C-50.628,45.073-55.738,49.161-60.877,45.598z"/>
	
		<path fill-rule="evenodd" clip-rule="evenodd" fill="none" stroke="#59545E" stroke-width="1.7008" stroke-linecap="round" stroke-linejoin="round" stroke-miterlimit="22.9256" d="
		M-59.416,36.265c0.891-2.471,2.325-5.092,3.831-7.402c0.565-0.864,1.129-1.667,1.69-2.408 M-51.733,23.876
		c0.991-1.059,1.963-1.929,2.897-2.623"/>
</g>
<g>
	
		<path fill-rule="evenodd" clip-rule="evenodd" fill="none" stroke="#59545E" stroke-width="1.7008" stroke-linecap="round" stroke-linejoin="round" stroke-miterlimit="22.9256" d="
		M13.306,20.536c-1.827-5.255,0.916-11.584,7.212-16.796"/>
	
		<path fill-rule="evenodd" clip-rule="evenodd" fill="none" stroke="#59545E" stroke-width="1.7008" stroke-linecap="round" stroke-linejoin="round" stroke-miterlimit="22.9256" d="
		M15.499,22.73c0.349-3.079,3.78-8.72,9.743-14.265"/>
	
		<path fill-rule="evenodd" clip-rule="evenodd" fill="none" stroke="#59545E" stroke-width="1.7008" stroke-linecap="round" stroke-linejoin="round" stroke-miterlimit="22.9256" d="
		M16.841,24.072c3.079-0.35,8.72-3.781,14.266-9.744"/>
	
		<path fill-rule="evenodd" clip-rule="evenodd" fill="none" stroke="#59545E" stroke-width="1.7008" stroke-linecap="round" stroke-linejoin="round" stroke-miterlimit="22.9256" d="
		M19.031,26.262c5.255,1.827,11.584-0.917,16.797-7.212"/>
	
		<path fill-rule="evenodd" clip-rule="evenodd" fill="#59545E" stroke="#59545E" stroke-width="1.7008" stroke-linecap="round" stroke-linejoin="round" stroke-miterlimit="22.9256" d="
		M16.176,23.392c8.235,8.235,7.749,17.517-0.46,22.104c-4.092,2.285-8.609,1.289-12.411-0.186c-6.52-2.528-10.902,3.391-12.557,3.51
		c0.12-1.654,6.037-6.038,3.509-12.559c-1.475-3.801-2.471-8.318-0.184-12.409C-1.339,15.644,7.94,15.156,16.176,23.392z"/>
	
		<path fill-rule="evenodd" clip-rule="evenodd" fill="none" stroke="#FFFFFF" stroke-width="1.7008" stroke-linecap="round" stroke-linejoin="round" stroke-miterlimit="22.9256" d="
		M-6.264,38.932c-0.85-3.266-0.47-6.369,0.716-9.019c1.091-2.437,2.864-4.489,4.99-5.927 M1.537,22.822
		c1.359-0.605,2.804-0.972,4.267-1.057"/>
</g>
<g>
	
		<path fill-rule="evenodd" clip-rule="evenodd" fill="none" stroke="#59545E" stroke-width="1.7008" stroke-linecap="round" stroke-linejoin="round" stroke-miterlimit="22.9256" d="
		M78.894,27.429l11.893-5.665l-1.813-1.812l-9.426,2.045l8.624-8.896L87.16,12.09l-1.011-1.011l-8.896,8.625l2.044-9.427
		l-1.812-1.812l-5.665,11.892c1.562,0.714,3.006,1.694,4.191,2.881C77.199,24.424,78.18,25.867,78.894,27.429z"/>
	
		<path fill-rule="evenodd" clip-rule="evenodd" fill="none" stroke="#59545E" stroke-width="1.7008" stroke-linecap="round" stroke-linejoin="round" stroke-miterlimit="22.9256" d="
		M76.013,23.238c4.236,4.236,5.849,11.747,2.056,16.233c-5.124,6.061-10.767,5.66-15.187,4.375
		c-2.897-0.842-7.306,1.876-9.358,3.086c-0.938,0.555-1.697-0.372-1.206-1.205c1.212-2.052,3.93-6.463,3.088-9.357
		c-1.286-4.418-1.686-10.063,4.375-15.187C64.266,17.389,71.777,19.002,76.013,23.238z"/>
	
		<path fill-rule="evenodd" clip-rule="evenodd" fill="none" stroke="#59545E" stroke-width="1.7008" stroke-linecap="round" stroke-linejoin="round" stroke-miterlimit="22.9256" d="
		M62.844,43.836c-2.896-0.809-7.276,1.892-9.32,3.096c-0.938,0.555-1.697-0.372-1.206-1.205c1.206-2.044,3.905-6.425,3.097-9.32
		L62.844,43.836z"/>
	
		<path fill-rule="evenodd" clip-rule="evenodd" fill="none" stroke="#59545E" stroke-width="1.7008" stroke-linecap="round" stroke-linejoin="round" stroke-miterlimit="22.9256" d="
		M56.878,32.891c0.585-2.553,1.832-5.077,3.651-7.088 M62.317,24.147c1.565-1.206,3.418-2.067,5.524-2.395"/>
</g>
<g>
	
		<path fill-rule="evenodd" clip-rule="evenodd" fill="none" stroke="#59545E" stroke-width="1.7008" stroke-linecap="round" stroke-linejoin="round" stroke-miterlimit="22.9256" d="
		M112.414,40.011l7.773,7.774l14.931-8.418c-0.795-1.248-1.126-2.708-0.989-4.132l-9.432,5.052l5.202-6.888
		c-0.616-0.307-1.196-0.715-1.711-1.23c-0.756-0.756-1.286-1.65-1.593-2.6l-6.166,5.544l2.812-7.402
		c-1.31-0.21-2.567-0.819-3.575-1.827l-0.108-0.11L112.414,40.011z"/>
	
		<path fill-rule="evenodd" clip-rule="evenodd" fill="none" stroke="#59545E" stroke-width="1.7008" stroke-linecap="round" stroke-linejoin="round" stroke-miterlimit="22.9256" d="
		M131.248,5.595c0.199,0.199,0.382,0.406,0.548,0.621c3.634-1.827,8.176-1.227,11.209,1.807c2.587,2.586,3.403,6.272,2.454,9.555
		c2.098,0.322,4.115,1.291,5.73,2.907c3.111,3.111,3.825,7.712,2.14,11.508c2.127,2.563,1.989,6.372-0.413,8.774
		c-0.784,0.784-1.719,1.326-2.708,1.628c0.016,1.691-0.62,3.388-1.911,4.679c-2.549,2.549-6.682,2.547-9.23-0.001
		c-1.534-1.534-2.145-3.642-1.832-5.634c-0.437-0.265-0.847-0.587-1.224-0.964c-1.784-1.784-2.319-4.343-1.606-6.592
		c-2.154,0.541-4.531-0.028-6.216-1.714c-1.293-1.293-1.928-2.992-1.91-4.686c-2.254,0.721-4.824,0.189-6.612-1.599
		c-1.608-1.607-2.2-3.843-1.781-5.917c-1.332-0.2-2.612-0.812-3.639-1.838c-2.548-2.548-2.55-6.681-0.001-9.23
		c1.774-1.774,4.314-2.312,6.554-1.618c0.307-0.607,0.714-1.177,1.221-1.684C124.568,3.047,128.7,3.047,131.248,5.595z"/>
	
		<path fill-rule="evenodd" clip-rule="evenodd" fill="none" stroke="#59545E" stroke-width="1.7008" stroke-linecap="round" stroke-linejoin="round" stroke-miterlimit="22.9256" d="
		M124.238,12.605c-1.321-1.322-1.32-3.466,0.002-4.788s3.466-1.322,4.787,0"/>
	
		<path fill-rule="evenodd" clip-rule="evenodd" fill="none" stroke="#59545E" stroke-width="1.7008" stroke-linecap="round" stroke-linejoin="round" stroke-miterlimit="22.9256" d="
		M131.513,10.234c2.562-2.562,6.718-2.563,9.281,0c1.461,1.461,2.09,3.442,1.883,5.348"/>
	
		<path fill-rule="evenodd" clip-rule="evenodd" fill="none" stroke="#59545E" stroke-width="1.7008" stroke-linecap="round" stroke-linejoin="round" stroke-miterlimit="22.9256" d="
		M138.291,23.216c0.151-0.185,0.311-0.36,0.479-0.528c2.821-2.821,7.396-2.822,10.218,0c2.821,2.821,2.821,7.396-0.001,10.218"/>
	
		<path fill-rule="evenodd" clip-rule="evenodd" fill="none" stroke="#59545E" stroke-width="1.7008" stroke-linecap="round" stroke-linejoin="round" stroke-miterlimit="22.9256" d="
		M116.471,15.904c-1.32-1.32-1.32-3.461,0-4.781c1.139-1.139,2.923-1.316,4.264-0.422"/>
</g>
<g>
	
		<path fill-rule="evenodd" clip-rule="evenodd" fill="none" stroke="#59545E" stroke-width="1.52" stroke-linecap="round" stroke-linejoin="round" stroke-miterlimit="22.9256" d="
		M214.054,27.371c-2.531,6.431-8.144,14.052-16.062,18.595c-11.644,6.682-23.786,3.953-23.983,1.842l-0.206-2.172
		c0,0,5.484-1.627,11.604-4.699c1.892-0.223,3.862-0.625,5.869-1.258c12.498-3.938,20.552-14.386,22.553-21.506v0.001
		c0.479-1.303,0.035-3.016-0.337-5.111c0.534,1.627,1.127,3.121,1.519,4.396C216.048,20.842,215.3,24.206,214.054,27.371z"/>
	
		<path fill-rule="evenodd" clip-rule="evenodd" fill="none" stroke="#59545E" stroke-width="1.52" stroke-linecap="round" stroke-linejoin="round" stroke-miterlimit="22.9256" d="
		M213.828,18.174c0.96-2.607-1.784-6.854-0.227-12.529l-2.635-0.272c0,0,0.171,2.778-0.413,4.812
		c-0.479,1.676-1.976,2.99-2.49,3.403c-0.061,0.042-0.119,0.086-0.174,0.136c-1.689,1.484-6.331,8.15-15.975,13.772
		c-9.645,5.622-24.196,6.682-24.196,6.682l-0.265,2.166c-0.259,2.105,11.018,7.365,23.821,3.334
		C203.773,35.741,211.827,25.293,213.828,18.174L213.828,18.174z"/>
	
		<path fill-rule="evenodd" clip-rule="evenodd" fill="none" stroke="#59545E" stroke-width="1.52" stroke-linecap="round" stroke-linejoin="round" stroke-miterlimit="22.9256" d="
		M207.235,18.18c-4.517,5.928-10.455,10.603-17.372,13.724c-3.078,1.389-6.39,2.465-9.669,3.232 M177.085,35.777
		c-1.891,0.338-3.742,0.57-5.503,0.701"/>
</g>
</svg>
