<?xml version="1.0" encoding="utf-8"?>
<!-- Generator: Adobe Illustrator 16.0.0, SVG Export Plug-In . SVG Version: 6.00 Build 0)  -->
<!DOCTYPE svg PUBLIC "-//W3C//DTD SVG 1.1//EN" "http://www.w3.org/Graphics/SVG/1.1/DTD/svg11.dtd">
<svg version="1.1" id="Layer_1" xmlns="http://www.w3.org/2000/svg" xmlns:xlink="http://www.w3.org/1999/xlink" x="0px" y="0px"
	 width="214px" height="214px" viewBox="0 0 214 214" enable-background="new 0 0 214 214" xml:space="preserve">
<g>
	<path fill="#70615F" d="M77.163,125.76c0,4.252-0.059,6.615-0.178,7.089c0.237,1.3-0.354,3.78-1.771,7.443
		c-0.708,2.481-1.773,4.49-3.19,6.027c-0.591,0.708-1.921,1.89-3.988,3.543c-2.068,1.655-3.457,3.132-4.166,4.433
		c0.118,0.354,0.266,0.856,0.443,1.505c0.177,0.651,0.385,1.212,0.621,1.685l1.24,1.95c0.237,0.355,0.473,1.005,0.71,1.949
		c0.236,0.944,0.413,1.596,0.531,1.949c4.254,10.164,6.558,15.716,6.913,16.661l-0.354,1.418c-5.908,0.709-11.934,0.709-18.079,0
		c-0.236-0.354-0.532-0.531-0.885-0.531c-1.301-3.309-3.487-8.152-6.559-14.534c-0.236-0.59-0.679-1.773-1.329-3.545
		c-0.65-1.771-1.271-3.072-1.861-3.898c-2.127,0.472-4.845,0.354-8.153-0.354c-2.836-0.829-4.491-1.301-4.963-1.419
		c-0.473-0.235-1.034-0.384-1.684-0.442c-0.65-0.06-1.034-0.09-1.152-0.09c-0.236,0-0.502-0.117-0.797-0.354
		c-0.296-0.236-0.503-0.413-0.621-0.531l-2.304-0.887l-0.355-0.356l-1.772-1.061c-0.591-0.236-2.068-1.42-4.431-3.547
		c-1.418-1.415-2.836-3.248-4.253-5.493c-1.182-1.891-2.246-4.313-3.191-7.266c-0.473-2.483-0.827-5.082-1.064-7.802
		c-0.236-0.824-0.295-2.272-0.177-4.341c0.118-2.068,0.177-3.398,0.177-3.988c-0.118-1.535-0.118-3.751,0-6.646
		c0.118-2.896,0.177-4.816,0.177-5.761v-9.395V90.49V79.675v-9.038c0-2.009,0.119-5.022,0.355-9.039
		c0-0.238,0.059-0.651,0.177-1.242c0.119-0.59,0.119-1.062,0-1.416c0-0.356-0.029-0.829-0.088-1.419
		c-0.059-0.59-0.089-1.123-0.089-1.595c0-0.236,0.118-0.679,0.355-1.33c0.236-0.65,0.295-1.151,0.177-1.505
		c1.772-3.782,2.836-6.204,3.191-7.268c1.654-2.835,4.194-5.553,7.621-8.154c0.945-0.944,2.009-1.713,3.19-2.303
		c1.418-0.591,3.545-1.24,6.381-1.95c0.945-0.355,2.068-0.649,3.367-0.886c2.009-0.472,5.908-0.592,11.698-0.354h2.482
		c1.299,0,2.245,0.118,2.836,0.354c1.536,0.355,2.422,0.413,2.659,0.177c2.717,0.827,6.321,2.659,10.811,5.494
		c1.536,0.946,3.249,2.542,5.14,4.787c0.709,0.944,1.359,2.128,1.95,3.543c0.236,0.474,0.62,1.035,1.152,1.684
		c0.531,0.651,0.857,1.212,0.974,1.684l0.531,1.773c0.236,0.708,0.473,2.186,0.709,4.431c0,0.118,0.118,0.68,0.355,1.684
		c0.236,1.005,0.354,1.802,0.354,2.394c0,0.943-0.029,2.42-0.089,4.429c-0.06,2.009-0.028,3.604,0.089,4.787v4.429
		c0,9.455,0.059,14.772,0.178,15.952c-0.236,1.065-0.354,2.306-0.354,3.723c0,1.418,0.06,2.984,0.177,4.696
		c0.119,1.714,0.178,3.044,0.178,3.99c-0.119,2.245-0.178,5.552-0.178,9.924c0,1.183,0.088,3.014,0.266,5.495
		c0.178,2.48,0.267,4.312,0.267,5.495C77.518,123.218,77.399,124.105,77.163,125.76 M55.274,81.98
		c0.177-3.9,0.147-6.085-0.088-6.558v-3.545c0-0.236-0.089-0.828-0.267-1.773c-0.177-0.944-0.265-1.654-0.265-2.127
		c0-0.472,0.059-1.536,0.177-3.189c0.118-1.655,0.118-2.896,0-3.722c-0.118-1.773-0.709-3.132-1.773-4.079
		c-0.118-0.118-0.265-0.293-0.443-0.529c-0.177-0.238-0.354-0.443-0.532-0.622c-0.177-0.177-0.324-0.265-0.442-0.265
		c-0.355-0.236-0.975-0.443-1.862-0.622c-0.885-0.175-1.506-0.325-1.861-0.443l-3.899-0.885c-2.127-0.12-4.549,0.413-7.267,1.595
		c-0.236,0.119-0.561,0.266-0.974,0.443c-0.414,0.177-0.68,0.384-0.798,0.62l-1.418,1.95v1.064v1.062l-0.532,1.596
		c-0.237,0.828-0.355,3.014-0.355,6.558c0,0.708-0.059,1.861-0.176,3.457c-0.118,1.595-0.177,2.807-0.177,3.633
		c0,1.301,0.088,3.546,0.265,6.735c0.177,3.191,0.206,5.554,0.088,7.089c0,0.946-0.029,2.394-0.088,4.344
		c-0.059,1.948-0.088,3.514-0.088,4.697v10.102c-0.828,11.106-0.473,18.847,1.063,23.217c0.354,0.355,0.738,0.887,1.152,1.597
		c0.413,0.709,0.856,1.24,1.329,1.597c1.89,1.298,3.664,2.065,5.317,2.302c2.6,0.474,5.672-0.118,9.217-1.771
		c2.363-1.063,3.841-2.955,4.432-5.672v-6.912c0-0.474,0.029-1.063,0.088-1.771c0.059-0.711,0.089-1.184,0.089-1.419
		c-0.237-4.49-0.296-7.799-0.177-9.924V89.07C55.009,88.244,55.097,85.879,55.274,81.98"/>
	<path fill="#70615F" d="M117.194,131.576c-1.342-1.283-2.257-2.624-2.745-4.028c-0.183,0.183-0.519,0.626-1.007,1.327
		c-0.488,0.703-1.007,1.235-1.556,1.603c-1.952,1.707-3.813,2.685-5.583,2.93l-0.915,0.273c-0.427,0-1.083,0.105-1.968,0.319
		c-0.885,0.216-1.603,0.322-2.151,0.322c-1.28,0-2.808-0.245-4.576-0.732l-1.007-0.458c-1.098-0.428-2.075-0.977-2.929-1.648
		l-0.824-0.733c-2.44-2.194-3.783-5.154-4.026-8.876l-0.274-3.66c0-3.236,1.342-6.347,4.026-9.337l0.549-0.642l1.373-1.464
		l0.824-0.64c0.244-0.062,0.519-0.213,0.823-0.457l1.647-1.282v0.091c0.244,0,0.397-0.03,0.457-0.091
		c-1.83-0.367-3.355-1.45-4.575-3.25c-1.22-1.798-2.044-3.614-2.472-5.445c-0.427-1.83-0.641-3.539-0.641-5.126
		c0-2.867,1.145-5.599,3.432-8.19c2.289-2.594,4.867-3.89,7.734-3.89c2.807,0,5.141,0.67,7.002,2.013
		c1.861,1.342,2.944,3.233,3.249,5.673l0.092,0.093v0.365c0,0.55-0.184,0.826-0.549,0.826c-0.062,0-0.123-0.033-0.183-0.093h-0.092
		c-0.184-0.061-0.275-0.304-0.275-0.733v-0.274c-0.854-4.576-4.027-6.865-9.518-6.865c-2.563,0-4.836,1.129-6.819,3.387
		c-1.983,2.257-2.974,4.79-2.974,7.597c0,1.893,0.244,3.539,0.731,4.942l0.274,0.915c1.281,4.882,4.455,7.322,9.519,7.322
		c0.733,0,1.19-0.029,1.372-0.091c0.428,0,1.068,0.062,1.923,0.184c0.854,0.121,1.526,0.182,2.014,0.182h2.654
		c0.183,0,0.458-0.014,0.823-0.046c0.367-0.029,0.671-0.047,0.915-0.047h0.641c0.244,0.124,0.702,0.184,1.373,0.184h1.099h0.55
		c5.369,0,8.054,0.245,8.054,0.733c0,0.183-0.061,0.395-0.183,0.64l-0.184,0.091c-0.306-0.121-0.915-0.182-1.83-0.182h-1.373
		c-0.916,0-1.587-0.03-2.014-0.091h-0.641c-0.122-0.063-0.52-0.091-1.19-0.091h-0.458c0.062,0.67,0.092,1.585,0.092,2.745
		c0,0.916-0.045,2.228-0.137,3.936c-0.091,1.707-0.137,2.988-0.137,3.844c0,0.611,0.061,1.464,0.182,2.563
		c0,1.34-0.03,2.349-0.091,3.021c0,3.537,0.519,6.1,1.556,7.686l0.458,0.459l0.366,0.365l0.183,0.275
		c1.221,1.586,3.143,2.93,5.767,4.028c0.183,0.182,0.441,0.336,0.778,0.457c0.336,0.121,0.504,0.304,0.504,0.549
		c0,0.306-0.153,0.458-0.458,0.458c-0.61,0-1.435-0.367-2.472-1.101C119.94,133.802,118.537,132.856,117.194,131.576
		 M90.835,111.667c-1.402,2.288-2.104,4.472-2.104,6.547c0,4.939,1.343,8.997,4.027,12.173l0.823,0.549
		c1.037,0.608,1.647,0.945,1.83,1.006l1.465,0.733c1.099,0.363,2.35,0.549,3.752,0.549c1.16,0,2.242-0.077,3.25-0.229
		c1.007-0.151,1.83-0.336,2.472-0.549c0.641-0.215,1.188-0.427,1.647-0.64c0.457-0.214,0.777-0.397,0.961-0.551
		c0.183-0.153,0.244-0.229,0.183-0.229c1.342-0.733,2.959-2.38,4.851-4.943c-0.243-0.915-0.365-2.379-0.365-4.392v-1.557
		c0-1.465,0.029-3.509,0.092-6.134c0.061-2.624,0.091-4.575,0.091-5.854c0-1.405-0.03-2.442-0.091-3.114h-6.407
		c-0.122,0-0.214,0.016-0.275,0.046c-0.061,0.031-0.152,0.047-0.273,0.047c-0.427,0-1.129-0.077-2.106-0.229
		c-0.976-0.154-1.77-0.229-2.379-0.229h-1.556c-0.794,0-1.724,0.258-2.791,0.778c-1.068,0.518-1.755,0.777-2.06,0.777
		C93.917,107.565,92.239,109.379,90.835,111.667"/>
	<path fill="#70615F" d="M203.449,165.938c0.059,1.004,0.059,1.862,0,2.57s-0.265,1.123-0.62,1.241h-2.304
		c-2.008-0.236-5.169-0.266-9.483-0.09c-4.312,0.179-7.296,0.148-8.949-0.087l-1.419-3.725v-1.415c0-0.238,0.118-0.297,0.355-0.179
		c0.236,0.118,0.354,0.061,0.354-0.177c0-0.236-0.177-0.413-0.531-0.531c0-2.837,0.059-7.563,0.178-14.18
		c0.118-6.616,0.059-10.932-0.178-12.94c0.354-1.889,0.414-5.019,0.178-9.392c-0.237-4.372-0.296-7.269-0.178-8.686h-11.077
		c-5.968,0-10.547-0.12-13.736-0.355c-0.119,0.947-0.208,2.688-0.267,5.229c-0.06,2.54-0.266,4.637-0.62,6.292
		c0.236,6.618,0.354,12.524,0.354,17.726v6.91c-0.236,2.6-0.236,7.505,0,14.712c-0.118,0.117-0.296,0.235-0.531,0.354
		c-0.237,0.12-0.414,0.297-0.532,0.533c-3.544,0.353-10.28,0.414-20.206,0.178c-0.236-0.473-0.531-0.768-0.885-0.886v-2.127
		c0-0.946-0.06-1.656-0.179-2.128c0-0.236-0.029-0.472-0.089-0.709c-0.059-0.236-0.088-0.475-0.088-0.71l-0.177-0.176
		c0-0.119,0.059-0.355,0.177-0.711c0.118-0.354,0.177-0.59,0.177-0.708c0.119-0.472,0-2.066-0.354-4.784
		c-0.591-6.145-0.532-14.238,0.177-24.284v-5.405c0-2.422,0.06-4.224,0.177-5.405v-8.33l-0.177-7.268
		c0-4.726,0.06-7.089,0.177-7.089c0.119-1.656,0.119-4.226,0-7.712c-0.117-3.485-0.177-6.113-0.177-7.886v-4.608
		c0-0.708,0.029-1.595,0.088-2.658c0.06-1.064,0.089-1.951,0.089-2.658v-5.674c0-3.071,0.119-5.377,0.355-6.91v-4.787
		c0-5.316-0.177-8.981-0.532-10.99c0.355,0,0.827-0.088,1.418-0.265c0.591-0.178,1.122-0.296,1.595-0.353
		c0.473-0.061,0.769-0.09,0.887-0.09c4.491-1.063,9.454-0.886,14.888,0.533c1.655,0.354,2.541,0.649,2.659,0.885
		c0.118,0.355,0.177,0.945,0.177,1.771c0,1.183-0.206,3.311-0.62,6.381c-0.414,3.073-0.62,5.495-0.62,7.268
		c0,2.953,0.236,5.316,0.709,7.09c-0.117,1.655-0.147,2.924-0.089,3.811c0.06,0.886,0.178,2.245,0.355,4.075
		c0.177,1.832,0.265,3.221,0.265,4.165c0.237,2.009,0.474,3.132,0.709,3.368c-0.472,0.827-0.591,2.806-0.354,5.938
		c0.235,3.131,0.295,5.23,0.177,6.292c5.554-0.236,11.285-0.236,17.192,0c0.71,0,1.979-0.059,3.811-0.177
		c1.832-0.118,3.279-0.118,4.343,0c0.827-20.324,1.064-36.453,0.709-48.386c-0.235-1.065-0.235-1.714,0-1.952
		c1.654-0.944,4.135-1.416,7.444-1.416c6.499,0,10.988,0.354,13.47,1.062c0.474,0.71,0.414,1.655-0.177,2.837
		c0.354,0.118,0.443,1.714,0.266,4.785c-0.177,3.073-0.266,4.669-0.266,4.787c0.472,13.233,0.709,28.357,0.709,45.374
		c0,1.653,0.03,4.283,0.089,7.886s0.088,6.113,0.088,7.532v4.608l0.355,0.708c0.354,0.356,0.235,0.829-0.355,1.419
		c-0.235,0.354-0.295,1.123-0.177,2.304c0.118,1.183,0.177,1.95,0.177,2.305c0,0.118-0.029,0.415-0.088,0.887
		s-0.089,0.826-0.089,1.062c-0.118,0.712-0.059,1.952,0.177,3.724v4.253l0.532,1.596v8.686v8.33c0,0.235,0.059,0.65,0.177,1.24
		c0.119,0.589,0.178,1.004,0.178,1.24s-0.059,0.651-0.178,1.241c-0.118,0.591-0.177,1.122-0.177,1.596
		C203.361,164.195,203.391,164.933,203.449,165.938 M134.06,146.885c6.618,0.591,13.175,0.591,19.675,0v-2.837
		c-0.355,0.236-1.892,0.356-4.609,0.356h-1.95h-2.658h-2.481c-3.898,0-6.558-0.178-7.976-0.531
		C134.295,144.816,134.295,145.822,134.06,146.885 M134.325,149.278c0.059,0.413,0.029,0.856-0.089,1.33
		c9.926,0.236,16.425,0.176,19.498-0.179v-1.948c-8.863,0.236-15.362,0.176-19.498-0.179
		C134.236,148.539,134.267,148.864,134.325,149.278 M134.414,142.454c4.49,0.472,10.28,0.59,17.369,0.354
		c0.237,0,0.591,0.031,1.064,0.09c0.473,0.06,0.768,0.089,0.887,0.089v-2.306c-7.326,0.592-13.767,0.475-19.32-0.354
		C134.178,141.508,134.178,142.217,134.414,142.454 M134.414,86.533c0,0.533,0.06,0.858,0.177,0.976
		c2.128-0.236,5.259-0.266,9.395-0.089c4.136,0.177,7.208,0.146,9.217-0.09v-2.658c-1.063,0-2.955-0.03-5.672-0.087
		c-2.718-0.061-5.17-0.031-7.356,0.087c-2.186,0.118-4.105,0.356-5.76,0.71V86.533z M134.414,139.086
		c6.617,0.236,10.517,0.354,11.698,0.354c4.726,0,7.267,0.061,7.622,0.179v-1.773c-1.892-0.118-5.022-0.236-9.396-0.354
		c-4.371-0.118-7.681-0.297-9.925-0.532V139.086z M134.414,154.331c1.773,0.118,4.903,0.057,9.395-0.18
		c4.489-0.235,7.738-0.354,9.748-0.354c0.117-0.118,0.178-0.708,0.178-1.773c-5.554,0.474-11.995,0.474-19.32,0V154.331z
		 M153.557,155.216c-1.183,0-4.372,0.118-9.571,0.354c-5.199,0.236-8.389,0.236-9.571,0c0,1.301,0.06,2.01,0.177,2.128
		c5.317,0.472,11.64,0.59,18.966,0.354V155.216z M134.857,164.787c0.059,0.472,0.147,0.769,0.266,0.887
		c2.245-0.236,8.391-0.474,18.434-0.71c0.236-0.591,0.236-1.122,0-1.596c-7.444,0.235-13.648,0.117-18.611-0.354
		c0.119,0.354,0.06,0.59-0.177,0.71c-0.236,0.118-0.354,0.236-0.354,0.354C134.65,164.078,134.798,164.315,134.857,164.787
		 M134.591,92.825c0,0.354-0.028,0.915-0.088,1.684c-0.059,0.769,0.029,1.212,0.266,1.33c3.899,0.354,10.162,0.533,18.788,0.533
		v-3.547C147.767,92.589,141.444,92.589,134.591,92.825 M134.591,79.887l13.116-0.708h4.253c0.119,0,0.296,0.176,0.532,0.529h0.355
		c0-0.353-0.03-0.797-0.089-1.328c-0.059-0.531-0.089-0.974-0.089-1.328c-1.418,0.236-4.401,0.324-8.95,0.265
		c-4.55-0.059-7.532-0.09-8.951-0.09C134.532,78.883,134.474,79.77,134.591,79.887 M134.591,46.743
		c0.118,0.236,0.178,0.472,0.178,0.708v0.71c2.48,0,5.73,0.087,9.748,0.266c4.018,0.177,6.795,0.265,8.331,0.265V46.92
		C146.466,45.503,140.381,45.442,134.591,46.743 M152.936,82.104c-0.06-0.533-0.088-0.917-0.088-1.153
		c-0.236,0.118-0.414,0.148-0.532,0.087c-0.118-0.057-0.295-0.175-0.532-0.354c-0.236-0.177-0.413-0.264-0.531-0.264h-2.127
		c-4.727,0-9.57,0.293-14.534,0.885v2.658c2.837-0.354,6.175-0.531,10.015-0.531s6.706-0.059,8.597-0.177
		C153.083,83.02,152.994,82.635,152.936,82.104 M153.202,88.571c-1.419,0-4.52-0.029-9.306-0.088
		c-4.785-0.059-7.888,0.031-9.306,0.267v2.835c9.926-0.236,16.13-0.236,18.611,0C153.438,90.523,153.438,89.518,153.202,88.571
		 M134.945,97.079c-0.236,0.472-0.295,1.034-0.177,1.684c0.118,0.651,0.059,1.094-0.178,1.33c2.837,0.118,5.819,0.207,8.951,0.265
		c3.131,0.06,6.617,0.118,10.457,0.178c3.84,0.058,6.766,0.088,8.774,0.088c11.461,0.238,18.314,0.356,20.56,0.356
		c0.474,0,1.182-0.061,2.127-0.179s1.803-0.207,2.57-0.265c0.767-0.06,1.506-0.089,2.215-0.089c0.236,0,3.841,0.177,10.812,0.533
		c0-1.891-0.06-2.896-0.178-3.014c-2.009,0-5.14-0.118-9.394-0.354s-7.267-0.356-9.04-0.356c-0.118,0-0.236,0.12-0.354,0.356
		c-0.119,0.236-0.297,0.295-0.531,0.175c-2.482,0-6.766,0.031-12.852,0.09c-6.085,0.06-10.723,0.03-13.914-0.09
		C145.698,97.787,139.081,97.551,134.945,97.079 M134.681,130.667c-0.06,0.296-0.06,0.62,0,0.976c0.059,0.354,0.028,0.767-0.09,1.24
		c5.436,0.472,11.817,0.59,19.144,0.354v-2.836c-5.672-0.355-11.936-0.532-18.789-0.532
		C134.827,130.105,134.739,130.373,134.681,130.667 M134.591,135.718c3.072,0.236,9.395,0.472,18.966,0.708v-1.771
		c-5.081,0.355-11.403,0.237-18.966-0.354V135.718z M134.857,62.516c-0.06,0.238-0.06,0.504,0,0.799
		c0.059,0.295,0.029,0.679-0.089,1.153c2.718,0.354,6.321,0.411,10.812,0.175c0.591-0.118,1.507-0.118,2.747,0
		c1.241,0.118,2.216,0.118,2.925,0l0.178-0.175c0.117-0.238,0.295-0.238,0.53,0c0-0.356,0.031-0.768,0.09-1.242
		c0.06-0.472-0.029-0.885-0.267-1.241c-0.236,0-0.413,0.059-0.531,0.177l-0.531,0.354c-8.981-0.354-14.181-0.59-15.598-0.708
		C135.005,62.044,134.916,62.28,134.857,62.516 M146.644,66.152c-2.363,0.057-4.49,0.057-6.38,0
		c-1.892-0.061-3.724-0.268-5.495-0.622c0.236,0.354,0.325,0.887,0.267,1.594c-0.059,0.712-0.09,1.184-0.09,1.42
		c6.972,0.236,12.703,0.059,17.193-0.533v-0.974v-0.974C150.838,66.063,149.007,66.091,146.644,66.152 M134.769,74.746v1.241
		c9.217,0,15.184-0.118,17.901-0.354l-0.354-2.481c-10.753,0.354-16.542,0.472-17.37,0.354
		C134.827,73.86,134.769,74.274,134.769,74.746 M201.234,102.22c-5.672-0.591-10.93-0.65-15.774-0.179
		c-1.182,0.118-6.439,0.179-15.774,0.179c-3.781,0-9.571-0.118-17.37-0.354c-7.799-0.237-13.588-0.355-17.37-0.355
		c-0.118,0-0.177,0.118-0.177,0.355v1.949c6.263,0,10.279,0.118,12.052,0.354c2.718,0.118,6.914,0.178,12.585,0.178
		c0.472,0,1.093,0.058,1.861,0.176c0.768,0.118,1.477,0.207,2.127,0.268c0.649,0.057,1.27,0.087,1.86,0.087
		c0.709,0,12.702-0.177,35.98-0.531V102.22z M201.058,110.55l0.177-1.064c-6.854-0.235-12.17-0.294-15.952-0.177
		c-0.473,0-8.979,0.177-25.523,0.533c-13.115,0-21.387-0.12-24.813-0.356c-0.118,0.236-0.177,0.621-0.177,1.153v1.152h3.634h3.988
		h3.367h6.025h7.444h6.913c2.481,0.118,6.439,0.059,11.875-0.177c3.78-0.238,11.521-0.238,23.219,0
		C201.116,111.497,201.058,111.14,201.058,110.55 M153.999,124.996c0.06-0.649,0.089-1.21,0.089-1.685
		c-2.363,0.238-5.584,0.148-9.659-0.266c-4.077-0.413-7.238-0.562-9.483-0.444c-0.118,0.475-0.177,1.241-0.177,2.307
		c7.562,0,13.529,0.235,17.901,0.708c0.118,0,0.295,0.117,0.532,0.354c0.236,0.236,0.472,0.356,0.709,0.356
		C153.911,126.087,153.94,125.644,153.999,124.996 M134.945,161.773c1.183,0.118,7.385,0.179,18.611,0.179v-2.306
		c-9.808,0-16.07-0.118-18.788-0.354C134.769,160.709,134.827,161.538,134.945,161.773 M134.857,127.565
		c-0.06,0.71-0.03,1.064,0.088,1.064c5.436-0.472,11.698-0.354,18.789,0.354v-1.418c-1.892-0.826-5.407-1.271-10.547-1.327
		c-5.141-0.062-7.888-0.09-8.242-0.09C134.945,126.384,134.916,126.856,134.857,127.565 M152.139,69.43
		c-3.427,0.354-9.157,0.531-17.193,0.531c-0.118,0.238-0.059,1.005,0.178,2.304c1.772,0,7.503-0.118,17.192-0.354
		C152.315,70.492,152.256,69.667,152.139,69.43 M200.349,112.854c-2.954-0.118-7.977-0.177-15.066-0.177h-4.963
		c-2.599,0.236-4.549,0.354-5.849,0.354h-33.854c-2.245,0-3.781,0.059-4.608,0.179c-0.826,0-1.182,0.175-1.063,0.529
		c0,0.119,0.296,0.179,0.887,0.179l4.254,0.354c1.891,0.118,4.55,0.061,7.977-0.177c2.126-0.236,5.258-0.177,9.393,0.177
		c4.136,0.354,7.208,0.472,9.217,0.354c0.591,0,1.418-0.059,2.481-0.176c1.064-0.118,2.038-0.207,2.925-0.269
		c0.886-0.057,1.743-0.087,2.569-0.087c1.183,0.237,3.782,0.237,7.799,0c4.018-0.236,6.5-0.355,7.444-0.355
		c0.945,0,2.541-0.089,4.786-0.266c2.244-0.177,4.018-0.207,5.316-0.089c0.828,0,1.241-0.118,1.241-0.354
		C201.234,112.914,200.939,112.854,200.349,112.854 M152.492,51.351c0-0.709,0.06-1.122,0.178-1.24l-17.725-0.71
		c0.119,0.356,0.178,1.359,0.178,3.012c9.925,0.356,15.538,0.533,16.837,0.533c0.119-0.236,0.237-0.354,0.355-0.354
		C152.434,52.474,152.492,52.059,152.492,51.351 M135.035,55.162c-0.059,0.413-0.09,0.739-0.09,0.975
		c1.891,0,4.609,0.118,8.154,0.355c3.544,0.236,6.32,0.236,8.33,0c0.117,0,0.235,0.058,0.354,0.176c0,0.235,0.118,0.296,0.355,0.178
		c-0.118-0.236-0.06-1.065,0.177-2.481c-1.654,0-4.49-0.118-8.507-0.356c-4.019-0.235-6.913-0.294-8.686-0.176
		C135.123,54.304,135.094,54.749,135.035,55.162 M151.783,59.327c0-0.59,0.06-1.063,0.177-1.419
		c-2.008,0.118-4.902,0.061-8.684-0.175c-3.782-0.238-6.44-0.356-7.977-0.356c-0.235,0-0.354,0.059-0.354,0.177
		c0.119,0.472,0.178,0.976,0.178,1.507v1.328c7.444,0.712,12.998,0.769,16.66,0.179V59.327z M134.945,108.069
		c2.836,0.236,13.235,0.354,31.195,0.354c2.127,0,8.241-0.089,18.345-0.265c10.103-0.179,15.685-0.15,16.749,0.088v-2.658
		c-0.709-0.236-2.54-0.236-5.494,0c-2.955,0.236-4.786,0.354-5.495,0.354c-4.726,0-8.331,0.059-10.812,0.177
		c-1.182,0.118-2.953,0.118-5.317,0c-2.363-0.118-4.136-0.118-5.317,0c-1.3,0.118-3.16,0.059-5.584-0.177
		c-2.422-0.236-4.163-0.354-5.228-0.354c-2.481,0-6.292-0.118-11.432-0.354c-5.141-0.238-9.011-0.238-11.61,0V108.069z
		 M165.077,116.399h21.446c7.562,0.236,12.466,0.118,14.711-0.354v-1.419c-0.827-0.118-1.89-0.176-3.19-0.176
		c-2.009,0.235-4.991,0.383-8.95,0.443c-3.958,0.058-6.942,0.146-8.951,0.265h-4.521h-4.695c-0.474,0-1.861,0.09-4.165,0.265
		c-2.306,0.178-4.049,0.268-5.229,0.268c-0.473,0-2.54-0.09-6.204-0.268c-3.663-0.175-5.849-0.147-6.557,0.089
		c-2.246,0.236-4.55,0.236-6.913,0h-6.913v1.241c2.364,0.118,5.613,0.178,9.749,0.178s7.326,0.118,9.57,0.354
		c0.118-0.591,1.183-0.887,3.19-0.887H165.077z M154.265,118.704c-1.891,0-5.169-0.088-9.836-0.268
		c-4.667-0.176-7.829-0.264-9.483-0.264v3.188c2.482-0.235,5.82-0.175,10.015,0.18c4.194,0.354,7.237,0.471,9.128,0.354
		C154.205,121.659,154.265,120.594,154.265,118.704 M153.734,167.178c-0.119-0.295-0.178-0.561-0.178-0.797
		c-9.1,0.236-15.303,0.533-18.611,0.886v0.708c2.836,0.356,7.031,0.533,12.585,0.533c0.236,0,2.304-0.177,6.204-0.533
		C153.853,167.74,153.853,167.475,153.734,167.178 M182.182,94.598c-0.06,0.472-0.089,0.887-0.089,1.241
		c4.726,0.354,11.048,0.651,18.965,0.886v-3.721c-7.8-0.236-14.062-0.118-18.788,0.354C182.27,93.712,182.24,94.126,182.182,94.598
		 M182.27,91.939c9.217-0.236,15.42-0.354,18.61-0.354v-1.774c-2.127-0.236-5.259-0.236-9.394,0
		c-4.136,0.238-7.09,0.356-8.863,0.356L182.27,91.939z M182.535,119.059c-0.059,0.589-0.089,0.943-0.089,1.062
		c4.018-0.354,10.28-0.413,18.788-0.178c-0.236-0.354-0.295-0.797-0.177-1.327c0.117-0.532,0.059-0.917-0.178-1.153
		c-2.127,0.355-5.317,0.474-9.57,0.355c-4.255-0.119-7.268-0.119-9.04,0C182.505,118.054,182.595,118.467,182.535,119.059
		 M201.234,121.186c-7.68-0.237-13.943-0.12-18.788,0.354c0.237,0.235,0.326,0.618,0.267,1.15c-0.059,0.532-0.09,0.915-0.09,1.151
		c2.009-0.118,5.022-0.147,9.04-0.088c4.019,0.059,7.208,0.031,9.571-0.087V121.186z M201.767,148.391v-3.81
		c-1.655,0-3.486,0.027-5.494,0.089c-2.009,0.057-4.284,0.146-6.824,0.264c-2.541,0.118-4.52,0.18-5.938,0.18
		c-0.236,0.117-0.414,0-0.532-0.356h-0.355v3.012c5.081,0.12,9.749-0.057,14.003-0.528l0.708-0.179h1.419
		c0.474,0,0.945,0.028,1.417,0.089c0.474,0.058,0.828,0.147,1.064,0.265c0.237,0.118,0.296,0.354,0.178,0.71
		c-0.119,0.118-0.65,0.177-1.596,0.177l-4.431,0.533c-2.128,0.236-6.381,0.354-12.763,0.354c-0.235,0.945-0.235,1.83,0,2.659
		c1.892,0.236,3.841,0.354,5.851,0.354c2.008,0,4.312-0.061,6.912-0.179c2.6-0.117,4.667-0.176,6.203-0.176
		C201.707,151.137,201.767,149.986,201.767,148.391 M201.767,156.101v-3.012c-1.064,0-4.106,0.088-9.128,0.265
		c-5.022,0.179-8.36,0.089-10.016-0.265c-0.235,0.944-0.235,1.83,0,2.658l8.509,0.354c0.826,0,2.186-0.088,4.076-0.266
		c1.891-0.177,3.31-0.208,4.254-0.088C200.644,155.983,201.412,156.101,201.767,156.101 M197.157,164.608
		c0.237,0,1.123,0.03,2.659,0.09c1.537,0.059,2.304-0.09,2.304-0.443c-0.236-0.118-0.384-0.295-0.442-0.531
		c-0.06-0.238-0.06-0.592,0-1.063c0.059-0.473,0.089-0.887,0.089-1.24c-0.474,0-2.658,0.177-6.559,0.532
		c-4.489,0.235-8.685,0.117-12.585-0.355c-0.118,0.827-0.177,2.007-0.177,3.544c3.664,0.118,7.976-0.059,12.939-0.532H197.157z
		 M182.623,47.63c-0.118,0.354-0.118,0.649,0,0.886c1.064,0.118,6.795,0.176,17.193,0.176c0.236,0,0.473,0.118,0.709,0.354
		c-0.118-0.236-0.118-0.59,0-1.062s0.177-0.828,0.177-1.064c-6.498-1.417-12.466-1.417-17.9,0
		C182.802,47.038,182.742,47.274,182.623,47.63 M182.623,88.75c1.419,0,3.161-0.031,5.23-0.09c2.066-0.059,4.399-0.146,7-0.264
		c2.6-0.118,4.608-0.179,6.026-0.179c0.118-0.472,0.118-1.123,0-1.948c-10.871,0-16.896-0.061-18.078-0.179
		C182.684,86.208,182.623,87.094,182.623,88.75 M201.058,125.794v-0.887c-2.363,0.235-5.495,0.295-9.395,0.175
		c-3.898-0.118-6.734-0.058-8.508,0.179l-0.532-0.354v2.303c1.064,0.118,7.268,0,18.611-0.354
		C201.116,126.621,201.058,126.266,201.058,125.794 M201.234,128.275c-1.536-0.117-3.278-0.061-5.229,0.176
		c-1.948,0.237-3.338,0.355-4.165,0.355c-3.78,0-6.853-0.059-9.217-0.177c0.237,0.944,0.237,1.891,0,2.835
		c0.71,0,3.841,0.089,9.395,0.266c5.554,0.178,8.626,0.149,9.217-0.087V128.275z M201.234,136.605
		c-6.026,0.708-12.229,0.887-18.611,0.532c0.119,0.236,0.179,1.062,0.179,2.481c5.198,0.472,11.402,0.354,18.61-0.354
		C201.412,137.963,201.354,137.078,201.234,136.605 M182.623,160.355c3.073,0.354,5.171,0.531,6.293,0.531
		c1.123,0,3.16-0.118,6.114-0.354c2.955-0.236,5.2-0.354,6.736-0.354v-2.837c-1.773-0.117-4.815-0.148-9.128-0.087
		c-4.313,0.057-7.651-0.03-10.016-0.266V160.355z M201.943,166.027c-1.891-0.117-5.022,0-9.395,0.354
		c-4.371,0.354-7.681,0.415-9.926,0.179c0,0.825,0.061,1.297,0.179,1.415c0.354,0,3.545-0.027,9.57-0.087
		c6.026-0.059,9.158-0.031,9.395,0.087C201.648,167.857,201.707,167.209,201.943,166.027 M200.88,73.686
		c-1.301,0.235-4.343,0.235-9.128,0c-4.786-0.238-7.71-0.356-8.773-0.356c-0.236,0-0.295,0.474-0.177,1.417
		c0.117,0.946,0.177,1.538,0.177,1.774h17.901V73.686z M200.525,52.77c0.118-0.474,0.177-1.3,0.177-2.481
		c-1.063-0.12-3.898-0.148-8.508-0.089c-4.608,0.059-7.739-0.149-9.393-0.621v2.481L200.525,52.77z M200.88,81.836
		c-1.653,0.118-4.757,0.118-9.306,0c-4.549-0.118-7.473,0.06-8.772,0.532v2.304c2.008,0.238,5.14,0.326,9.393,0.267
		c4.255-0.059,7.15-0.029,8.686,0.089V81.836z M201.234,133.238c-5.908,0.235-12.052,0.059-18.433-0.533v3.192
		c4.135,0.473,10.279,0.293,18.433-0.532V133.238z M201.589,140.859c-0.945,0-3.987,0.089-9.128,0.265
		c-5.14,0.179-8.359,0.09-9.659-0.265v2.835c2.362,0.118,5.582,0.06,9.659-0.177c4.076-0.235,7.118-0.355,9.128-0.355V140.859z
		 M200.88,77.938h-8.508c-4.607,0-7.74-0.118-9.394-0.354c-0.118,0-0.118,0.592,0,1.772v1.596c2.009-0.238,4.934-0.356,8.773-0.356
		c3.841,0,6.884-0.057,9.128-0.175V77.938z M200.525,54.187c-6.617-0.471-12.466-0.707-17.547-0.707v2.481
		c1.418,0.118,7.267,0.177,17.547,0.177V54.187z M182.979,57.554v2.66c1.771-0.118,4.667,0,8.685,0.354
		c4.019,0.354,6.973,0.413,8.862,0.177v-3.191c-1.536-0.118-3.781-0.177-6.735-0.177h-6.913
		C184.75,57.141,183.451,57.2,182.979,57.554 M200.525,62.162c-2.245,0.118-5.229-0.028-8.951-0.443
		c-3.721-0.413-6.587-0.443-8.596-0.088v2.481c1.3,0.118,7.148,0.177,17.547,0.177V62.162z M182.979,68.19
		c2.127,0,5.11,0.057,8.951,0.175c3.84,0.12,6.706,0.179,8.596,0.179v-0.708v-0.622v-0.797V65.53h-17.37
		C183.037,65.648,182.979,66.535,182.979,68.19 M200.702,69.961c-11.343-0.354-17.251-0.531-17.724-0.531v2.481
		c7.208,0.59,13.116,0.708,17.724,0.354V69.961z M188.118,45.324h0.355c0,0.118,0.028,0.148,0.088,0.089
		c0.059-0.059,0.089-0.146,0.089-0.264h-0.355c0-0.12-0.059-0.179-0.177-0.179C187.882,45.207,187.882,45.324,188.118,45.324"/>
</g>
</svg>
